<mxfile host="app.diagrams.net" agent="Mozilla/5.0 (X11; Linux x86_64; rv:134.0) Gecko/20100101 Firefox/134.0" version="26.0.8">
  <diagram id="C5RBs43oDa-KdzZeNtuy" name="Page-1">
    <mxGraphModel dx="1434" dy="781" grid="1" gridSize="10" guides="1" tooltips="1" connect="1" arrows="1" fold="1" page="1" pageScale="1" pageWidth="827" pageHeight="1169" math="0" shadow="0">
      <root>
        <mxCell id="WIyWlLk6GJQsqaUBKTNV-0" />
        <mxCell id="WIyWlLk6GJQsqaUBKTNV-1" parent="WIyWlLk6GJQsqaUBKTNV-0" />
        <mxCell id="9cJeoDoXLfbDEEZ6jCeZ-1" value="Element" style="swimlane;fontStyle=1;align=center;verticalAlign=top;childLayout=stackLayout;horizontal=1;startSize=26;horizontalStack=0;resizeParent=1;resizeParentMax=0;resizeLast=0;collapsible=1;marginBottom=0;whiteSpace=wrap;html=1;" vertex="1" parent="WIyWlLk6GJQsqaUBKTNV-1">
          <mxGeometry x="290" y="70" width="180" height="128" as="geometry" />
        </mxCell>
        <mxCell id="9cJeoDoXLfbDEEZ6jCeZ-2" value="&lt;div&gt;+ rectangle: SDL_Rect&lt;/div&gt;" style="text;strokeColor=none;fillColor=none;align=left;verticalAlign=top;spacingLeft=4;spacingRight=4;overflow=hidden;rotatable=0;points=[[0,0.5],[1,0.5]];portConstraint=eastwest;whiteSpace=wrap;html=1;" vertex="1" parent="9cJeoDoXLfbDEEZ6jCeZ-1">
          <mxGeometry y="26" width="180" height="44" as="geometry" />
        </mxCell>
        <mxCell id="9cJeoDoXLfbDEEZ6jCeZ-3" value="" style="line;strokeWidth=1;fillColor=none;align=left;verticalAlign=middle;spacingTop=-1;spacingLeft=3;spacingRight=3;rotatable=0;labelPosition=right;points=[];portConstraint=eastwest;strokeColor=inherit;" vertex="1" parent="9cJeoDoXLfbDEEZ6jCeZ-1">
          <mxGeometry y="70" width="180" height="8" as="geometry" />
        </mxCell>
        <mxCell id="9cJeoDoXLfbDEEZ6jCeZ-4" value="&lt;div&gt;- centerVertical()&lt;/div&gt;&lt;div&gt;- centerHorizontal()&lt;br&gt;&lt;/div&gt;" style="text;strokeColor=none;fillColor=none;align=left;verticalAlign=top;spacingLeft=4;spacingRight=4;overflow=hidden;rotatable=0;points=[[0,0.5],[1,0.5]];portConstraint=eastwest;whiteSpace=wrap;html=1;" vertex="1" parent="9cJeoDoXLfbDEEZ6jCeZ-1">
          <mxGeometry y="78" width="180" height="50" as="geometry" />
        </mxCell>
        <mxCell id="9cJeoDoXLfbDEEZ6jCeZ-5" value="Text" style="swimlane;fontStyle=1;align=center;verticalAlign=top;childLayout=stackLayout;horizontal=1;startSize=26;horizontalStack=0;resizeParent=1;resizeParentMax=0;resizeLast=0;collapsible=1;marginBottom=0;whiteSpace=wrap;html=1;" vertex="1" parent="WIyWlLk6GJQsqaUBKTNV-1">
          <mxGeometry x="110" y="380" width="220" height="170" as="geometry" />
        </mxCell>
        <mxCell id="9cJeoDoXLfbDEEZ6jCeZ-6" value="&lt;div&gt;+ displayGlobal: DisplayGlobal&lt;br&gt;&lt;/div&gt;&lt;div&gt;+ font: TTF_Font*&lt;/div&gt;&lt;div&gt;+ content: const char*&lt;/div&gt;&lt;div&gt;+ fontSize: int&lt;/div&gt;&lt;div&gt;+ color: SDL_Color&lt;/div&gt;&lt;div&gt;+ texture: SDL_Texture*&lt;/div&gt;&lt;div&gt;+ rectangle: SDL_Rect&lt;br&gt;&lt;/div&gt;&lt;div&gt;&lt;br&gt;&lt;/div&gt;" style="text;strokeColor=none;fillColor=none;align=left;verticalAlign=top;spacingLeft=4;spacingRight=4;overflow=hidden;rotatable=0;points=[[0,0.5],[1,0.5]];portConstraint=eastwest;whiteSpace=wrap;html=1;" vertex="1" parent="9cJeoDoXLfbDEEZ6jCeZ-5">
          <mxGeometry y="26" width="220" height="114" as="geometry" />
        </mxCell>
        <mxCell id="9cJeoDoXLfbDEEZ6jCeZ-7" value="" style="line;strokeWidth=1;fillColor=none;align=left;verticalAlign=middle;spacingTop=-1;spacingLeft=3;spacingRight=3;rotatable=0;labelPosition=right;points=[];portConstraint=eastwest;strokeColor=inherit;" vertex="1" parent="9cJeoDoXLfbDEEZ6jCeZ-5">
          <mxGeometry y="140" width="220" height="8" as="geometry" />
        </mxCell>
        <mxCell id="9cJeoDoXLfbDEEZ6jCeZ-8" value="- render()" style="text;strokeColor=none;fillColor=none;align=left;verticalAlign=top;spacingLeft=4;spacingRight=4;overflow=hidden;rotatable=0;points=[[0,0.5],[1,0.5]];portConstraint=eastwest;whiteSpace=wrap;html=1;" vertex="1" parent="9cJeoDoXLfbDEEZ6jCeZ-5">
          <mxGeometry y="148" width="220" height="22" as="geometry" />
        </mxCell>
        <mxCell id="9cJeoDoXLfbDEEZ6jCeZ-13" value="Button" style="swimlane;fontStyle=1;align=center;verticalAlign=top;childLayout=stackLayout;horizontal=1;startSize=26;horizontalStack=0;resizeParent=1;resizeParentMax=0;resizeLast=0;collapsible=1;marginBottom=0;whiteSpace=wrap;html=1;" vertex="1" parent="WIyWlLk6GJQsqaUBKTNV-1">
          <mxGeometry x="414" y="380" width="236" height="170" as="geometry" />
        </mxCell>
        <mxCell id="9cJeoDoXLfbDEEZ6jCeZ-14" value="&lt;div&gt;+ displayGlobal: DisplayGlobal&lt;/div&gt;&lt;div&gt;+ text: unqiue_ptr&amp;lt;Text&amp;gt;&lt;/div&gt;&lt;div&gt;+ backgroundRectangle: SDL_Rect&lt;/div&gt;&lt;div&gt;+ backgroundColor: SDL_Color&lt;/div&gt;&lt;div&gt;+ defaultColor: SDL_Color&lt;/div&gt;&lt;div&gt;+ SDL_Color: hoveredColor&lt;br&gt;&lt;/div&gt;" style="text;strokeColor=none;fillColor=none;align=left;verticalAlign=top;spacingLeft=4;spacingRight=4;overflow=hidden;rotatable=0;points=[[0,0.5],[1,0.5]];portConstraint=eastwest;whiteSpace=wrap;html=1;" vertex="1" parent="9cJeoDoXLfbDEEZ6jCeZ-13">
          <mxGeometry y="26" width="236" height="94" as="geometry" />
        </mxCell>
        <mxCell id="9cJeoDoXLfbDEEZ6jCeZ-15" value="" style="line;strokeWidth=1;fillColor=none;align=left;verticalAlign=middle;spacingTop=-1;spacingLeft=3;spacingRight=3;rotatable=0;labelPosition=right;points=[];portConstraint=eastwest;strokeColor=inherit;" vertex="1" parent="9cJeoDoXLfbDEEZ6jCeZ-13">
          <mxGeometry y="120" width="236" height="8" as="geometry" />
        </mxCell>
        <mxCell id="9cJeoDoXLfbDEEZ6jCeZ-16" value="&lt;div&gt;- checkHovered(int, int): bool&lt;/div&gt;&lt;div&gt;- render()&lt;br&gt;&lt;/div&gt;" style="text;strokeColor=none;fillColor=none;align=left;verticalAlign=top;spacingLeft=4;spacingRight=4;overflow=hidden;rotatable=0;points=[[0,0.5],[1,0.5]];portConstraint=eastwest;whiteSpace=wrap;html=1;" vertex="1" parent="9cJeoDoXLfbDEEZ6jCeZ-13">
          <mxGeometry y="128" width="236" height="42" as="geometry" />
        </mxCell>
        <mxCell id="9cJeoDoXLfbDEEZ6jCeZ-18" value="" style="endArrow=open;endFill=1;endSize=12;html=1;rounded=0;exitX=0;exitY=0.5;exitDx=0;exitDy=0;entryX=1;entryY=0.5;entryDx=0;entryDy=0;" edge="1" parent="WIyWlLk6GJQsqaUBKTNV-1" source="9cJeoDoXLfbDEEZ6jCeZ-14" target="9cJeoDoXLfbDEEZ6jCeZ-5">
          <mxGeometry width="160" relative="1" as="geometry">
            <mxPoint x="330" y="350" as="sourcePoint" />
            <mxPoint x="490" y="350" as="targetPoint" />
          </mxGeometry>
        </mxCell>
        <mxCell id="9cJeoDoXLfbDEEZ6jCeZ-23" value="Extends" style="endArrow=block;endSize=16;endFill=0;html=1;rounded=0;exitX=0.5;exitY=0;exitDx=0;exitDy=0;entryX=0.5;entryY=1;entryDx=0;entryDy=0;" edge="1" parent="WIyWlLk6GJQsqaUBKTNV-1" source="9cJeoDoXLfbDEEZ6jCeZ-5" target="9cJeoDoXLfbDEEZ6jCeZ-1">
          <mxGeometry width="160" relative="1" as="geometry">
            <mxPoint x="330" y="350" as="sourcePoint" />
            <mxPoint x="490" y="350" as="targetPoint" />
          </mxGeometry>
        </mxCell>
        <mxCell id="9cJeoDoXLfbDEEZ6jCeZ-24" value="Extends" style="endArrow=block;endSize=16;endFill=0;html=1;rounded=0;exitX=0.5;exitY=0;exitDx=0;exitDy=0;entryX=0.469;entryY=0.885;entryDx=0;entryDy=0;entryPerimeter=0;" edge="1" parent="WIyWlLk6GJQsqaUBKTNV-1" source="9cJeoDoXLfbDEEZ6jCeZ-13" target="9cJeoDoXLfbDEEZ6jCeZ-4">
          <mxGeometry width="160" relative="1" as="geometry">
            <mxPoint x="260" y="390" as="sourcePoint" />
            <mxPoint x="480" y="300" as="targetPoint" />
          </mxGeometry>
        </mxCell>
      </root>
    </mxGraphModel>
  </diagram>
</mxfile>
